<svg xmlns="http://www.w3.org/2000/svg" viewBox="0 0 1200 300" width="1200" height="300">
  <!-- Texto principal com máximo destaque -->
  <text x="50%" y="100" text-anchor="middle" font-size="80" font-family="Impact, Arial, sans-serif" fill="white" font-weight="bold"
        stroke="#003320" stroke-width="2"
        style="filter: drop-shadow(3px 5px 2px rgba(0, 0, 0, 0.7)); text-transform: uppercase;">
    PORTAL DADOS ABERTOS
  </text>

  <!-- Faixas onduladas coladas em "S" parcial -->
  <!-- Verde -->
  <path d="M50,150 C150,120 300,100 500,140 C700,180 900,160 1150,150 L1150,170 C900,180 700,200 500,160 C300,120 150,140 50,170 Z" fill="#00923f" />
  
  <!-- Amarelo -->
  <path d="M50,170 C150,140 300,120 500,160 C700,200 900,180 1150,170 L1150,190 C900,200 700,220 500,180 C300,140 150,160 50,190 Z" fill="#FFCC00" />
  
  <!-- Azul -->
  <path d="M50,190 C150,160 300,140 500,180 C700,220 900,200 1150,190 L1150,210 C900,220 700,240 500,200 C300,160 150,180 50,210 Z" fill="#002776" />
</svg>